<?xml version="1.0" encoding="utf-8"?>
<!-- Generator: Adobe Illustrator 23.1.1, SVG Export Plug-In . SVG Version: 6.00 Build 0)  -->
<svg version="1.1" id="Capa_1" xmlns="http://www.w3.org/2000/svg" xmlns:xlink="http://www.w3.org/1999/xlink" x="0px" y="0px"
	 viewBox="0 0 512 512" style="enable-background:new 0 0 512 512;" xml:space="preserve">
<style type="text/css">
	.st0{fill:#192534;}
</style>
<g>
	<path class="st0" d="M102.8,275.8c0,85.6,69.6,155.2,155.2,155.2s155.2-69.6,155.2-155.2S343.6,120.6,258,120.6
		S102.8,190.2,102.8,275.8L102.8,275.8z M258,135.6c77.3,0,140.2,62.9,140.2,140.2S335.3,416,258,416s-140.2-62.9-140.2-140.2
		S180.7,135.6,258,135.6L258,135.6z"/>
	<path class="st0" d="M89.1,433.1l-7-149.9c-0.3-5.4-3.3-10-7.6-12.7v-86.9h0.5c16.5,0,29.9-13.4,29.9-29.9c0-10.3,0-84.5,0-94.8
		c0-4.1-3.4-7.5-7.5-7.5S90,54.7,90,58.8V137H74.6V58.8c0-4.1-3.4-7.5-7.5-7.5s-7.5,3.4-7.5,7.5V137H45.4V58.8
		c0-4.1-3.4-7.5-7.5-7.5s-7.5,3.4-7.5,7.5V137H15V58.8c0-4.1-3.4-7.5-7.5-7.5S0,54.7,0,58.8v94.8c0,16.5,13.4,29.9,29.9,29.9h0.5
		v86.9c-4.3,2.6-7.3,7.3-7.6,12.7l-7,149.8c-1.1,21,15.6,38.6,36.6,38.6C73.5,471.7,90.2,454.1,89.1,433.1L89.1,433.1z M15,153.7
		V152h75v1.6c0,8.2-6.7,14.9-14.9,14.9c-10.1,0-35.7,0-45.3,0C21.7,168.5,15,161.9,15,153.7z M59.6,183.5v84.6H45.4v-84.6H59.6z
		 M52.5,456.7c-12.4,0-22.3-10.3-21.6-22.9l7-149.8c0-0.5,0.4-0.8,0.9-0.8h0l27.6,0c0.4,0,0.8,0.4,0.8,0.8l7,149.9c0,0,0,0,0,0
		C74.8,446.3,64.9,456.7,52.5,456.7z"/>
	<path class="st0" d="M237.2,390.2c4.1,0.7,8-2,8.7-6c0.7-4.1-2-8-6-8.7c-48.2-8.7-83.1-50.6-83.1-99.7
		c0-55.9,45.4-101.3,101.3-101.3s101.3,45.4,101.3,101.3c0,50.1-37.3,93.2-86.9,100.3c-4.1,0.6-7,4.4-6.4,8.5
		c0.5,3.7,3.7,6.4,7.4,6.4c0.4,0,0.7,0,1.1-0.1c27.5-3.9,52.7-17.6,71-38.6c18.5-21.2,28.7-48.4,28.7-76.5
		c0-64.1-52.2-116.3-116.3-116.3s-116.3,52.2-116.3,116.3C141.7,332.1,181.8,380.2,237.2,390.2L237.2,390.2z"/>
	<path class="st0" d="M509.5,387c-0.2-4.1-3.8-7.3-7.9-7.1c-4.1,0.2-7.3,3.8-7.1,7.9l2.4,46c0.7,12.4-9.2,22.8-21.6,22.8
		c-12.4,0-22.3-10.4-21.6-22.8l7-131c0-0.5,0.4-0.8,0.9-0.8l27.6,0c0.4,0,0.8,0.4,0.8,0.8l2.7,50c0.2,4.1,3.8,7.3,7.9,7.1
		c4.1-0.2,7.3-3.8,7.1-7.9l-2.7-50c-0.3-5.4-3.3-10-7.6-12.7v-23.1c7.2-1.8,12.6-8.4,12.6-16.2V59c0-6.1-2.9-11.8-7.9-15.3
		s-11.3-4.4-17-2.4c-38.4,13.5-64.3,49.9-64.3,90.6v95.2c0,6,3.3,11.6,8.6,14.6c5.3,3,9.3,7.8,11.2,13.6c1.9,5.8,6.8,9.9,12.6,11
		v22.9c-4.3,2.6-7.3,7.3-7.6,12.7l-7,131c-1.1,21,15.6,38.6,36.6,38.6c21.1,0,37.7-17.6,36.6-38.6L509.5,387z M468.2,266.7h14.2V287
		h-14.2V266.7z M436.7,228.7c-0.6-0.3-0.9-0.9-0.9-1.5V132c0-34.4,21.8-65.1,54.2-76.5c1.6-0.5,2.8,0.1,3.4,0.5s1.6,1.4,1.6,3v191
		c0,0.9-0.8,1.7-1.7,1.7h-3.4h-29.2h-4.2c-0.7,0-1.4-0.4-1.6-1.1C451.8,241.3,445.4,233.5,436.7,228.7z"/>
</g>
</svg>
