<?xml version="1.0" encoding="utf-8"?>
<!-- Generator: Adobe Illustrator 23.1.1, SVG Export Plug-In . SVG Version: 6.00 Build 0)  -->
<svg version="1.1" id="Capa_1" xmlns="http://www.w3.org/2000/svg" xmlns:xlink="http://www.w3.org/1999/xlink" x="0px" y="0px"
	 viewBox="0 0 512 512" style="enable-background:new 0 0 512 512;" xml:space="preserve">
<style type="text/css">
	.st0{fill:#192534;}
</style>
<g>
	<path class="st0" d="M437,75C388.7,26.6,324.4,0,256,0S123.3,26.6,75,75S0,187.6,0,256s26.6,132.7,75,181s112.6,75,181,75
		s132.7-26.6,181-75s75-112.6,75-181S485.4,123.3,437,75z M425.7,425.7C380.4,471,320.1,496,256,496s-124.4-25-169.7-70.3
		S16,320.1,16,256S41,131.6,86.3,86.3S191.9,16,256,16s124.4,25,169.7,70.3S496,191.9,496,256S471,380.4,425.7,425.7z"/>
	<path class="st0" d="M48,256c0-114.7,93.3-208,208-208c41.4,0,81.3,12.1,115.6,35c3.7,2.5,8.6,1.5,11.1-2.2
		c2.5-3.7,1.5-8.6-2.2-11.1C343.6,45,300.5,32,256,32c-59.8,0-116.1,23.3-158.4,65.6S32,196.2,32,256c0,55.2,20.3,108.2,57,149.3
		c1.6,1.8,3.8,2.7,6,2.7c1.9,0,3.8-0.7,5.3-2c3.3-2.9,3.6-8,0.6-11.3C66.8,356.5,48,307.3,48,256z"/>
	<path class="st0" d="M442.3,131.5c-2.5-3.7-7.4-4.7-11.1-2.2c-3.7,2.5-4.7,7.4-2.2,11.1c22.9,34.2,35,74.2,35,115.6
		c0,114.7-93.3,208-208,208c-47.6,0-94.1-16.5-131-46.4c-3.4-2.8-8.5-2.3-11.3,1.2s-2.3,8.5,1.2,11.3c39.7,32.2,89.8,50,141.1,50
		c59.8,0,116.1-23.3,158.4-65.6S480,315.8,480,256C480,211.5,467,168.4,442.3,131.5z"/>
	<path class="st0" d="M394.7,101c5.4,4.8,10.6,10,15.4,15.3c1.6,1.7,3.7,2.6,5.9,2.6c1.9,0,3.8-0.7,5.4-2.1c3.3-3,3.5-8,0.5-11.3
		c-5.2-5.8-10.8-11.3-16.6-16.5c-3.3-2.9-8.4-2.7-11.3,0.6S391.4,98,394.7,101z"/>
	<path class="st0" d="M256,104c4.4,0,8-3.6,8-8V72c0-4.4-3.6-8-8-8s-8,3.6-8,8v24C248,100.4,251.6,104,256,104z"/>
	<path class="st0" d="M248,416v24c0,4.4,3.6,8,8,8s8-3.6,8-8v-24c0-4.4-3.6-8-8-8S248,411.6,248,416z"/>
	<path class="st0" d="M104,256c0-4.4-3.6-8-8-8H72c-4.4,0-8,3.6-8,8s3.6,8,8,8h24C100.4,264,104,260.4,104,256z"/>
	<path class="st0" d="M408,256c0,4.4,3.6,8,8,8h24c4.4,0,8-3.6,8-8s-3.6-8-8-8h-24C411.6,248,408,251.6,408,256z"/>
	<path class="st0" d="M182.9,113.4l-12-20.8c-2.2-3.8-7.1-5.1-10.9-2.9c-3.8,2.2-5.1,7.1-2.9,10.9l12,20.8c1.5,2.6,4.2,4,6.9,4
		c1.4,0,2.7-0.3,4-1.1C183.8,122.2,185.1,117.3,182.9,113.4z"/>
	<path class="st0" d="M342.9,390.6c-2.2-3.8-7.1-5.1-10.9-2.9c-3.8,2.2-5.1,7.1-2.9,10.9l12,20.8c1.5,2.6,4.2,4,6.9,4
		c1.4,0,2.7-0.3,4-1.1c3.8-2.2,5.1-7.1,2.9-10.9L342.9,390.6z"/>
	<path class="st0" d="M96.7,356c1.4,0,2.7-0.3,4-1.1l20.8-12c3.8-2.2,5.1-7.1,2.9-10.9c-2.2-3.8-7.1-5.1-10.9-2.9l-20.8,12
		c-3.8,2.2-5.1,7.1-2.9,10.9C91.2,354.6,93.9,356,96.7,356z"/>
	<path class="st0" d="M394.6,184c1.4,0,2.7-0.3,4-1.1l20.8-12c3.8-2.2,5.1-7.1,2.9-10.9s-7.1-5.1-10.9-2.9l-20.8,12
		c-3.8,2.2-5.1,7.1-2.9,10.9C389.1,182.6,391.8,184,394.6,184z"/>
	<path class="st0" d="M352,89.7c-3.8-2.2-8.7-0.9-10.9,2.9l-12,20.8c-2.2,3.8-0.9,8.7,2.9,10.9c1.3,0.7,2.6,1.1,4,1.1
		c2.8,0,5.5-1.4,6.9-4l12-20.8C357.1,96.8,355.8,91.9,352,89.7z"/>
	<path class="st0" d="M180,387.6c-3.8-2.2-8.7-0.9-10.9,2.9l-12,20.8c-2.2,3.8-0.9,8.7,2.9,10.9c1.3,0.7,2.6,1.1,4,1.1
		c2.8,0,5.5-1.4,6.9-4l12-20.8C185.1,394.7,183.8,389.8,180,387.6z"/>
	<path class="st0" d="M390.6,342.9l20.8,12c1.3,0.7,2.6,1.1,4,1.1c2.8,0,5.5-1.4,6.9-4c2.2-3.8,0.9-8.7-2.9-10.9l-20.8-12
		c-3.8-2.2-8.7-0.9-10.9,2.9C385.4,335.8,386.7,340.7,390.6,342.9z"/>
	<path class="st0" d="M121.4,169.1l-20.8-12c-3.8-2.2-8.7-0.9-10.9,2.9c-2.2,3.8-0.9,8.7,2.9,10.9l20.8,12c1.3,0.7,2.6,1.1,4,1.1
		c2.8,0,5.5-1.4,6.9-4C126.6,176.2,125.3,171.3,121.4,169.1z"/>
	<path class="st0" d="M311.7,360.5c1.4,0,2.7-0.3,4-1.1c3.8-2.2,5.1-7.1,2.9-10.9l-44.4-76.9c3.6-4.2,5.8-9.6,5.8-15.6
		c0-10.4-6.7-19.3-16-22.6V128c0-4.4-3.6-8-8-8s-8,3.6-8,8v105.4c-9.3,3.3-16,12.2-16,22.6c0,13.2,10.8,24,24,24
		c1.5,0,3-0.1,4.4-0.4l44.4,76.9C306.2,359,308.9,360.5,311.7,360.5z M248,256c0-4.4,3.6-8,8-8c4.4,0,8,3.6,8,8c0,4.4-3.6,8-8,8
		S248,260.4,248,256z"/>
</g>
</svg>
