<?xml version="1.0" encoding="utf-8"?>
<!-- Generator: Adobe Illustrator 23.1.1, SVG Export Plug-In . SVG Version: 6.00 Build 0)  -->
<svg version="1.1" id="Out_line" xmlns="http://www.w3.org/2000/svg" xmlns:xlink="http://www.w3.org/1999/xlink" x="0px" y="0px"
	 viewBox="0 0 512 512" style="enable-background:new 0 0 512 512;" xml:space="preserve">
<style type="text/css">
	.st0{fill:#192534;}
</style>
<path class="st0" d="M488,424h-56V263.3c18.8-3.9,30.9-22.3,27.1-41.1c-0.4-1.9-0.9-3.7-1.6-5.5L432,150.5V24c0-4.4-3.6-8-8-8
	c0,0,0,0,0,0H88c-4.4,0-8,3.6-8,8c0,0,0,0,0,0v126.5l-25.5,66.2c-6.9,17.9,2,38.1,20,45c1.8,0.7,3.6,1.2,5.5,1.6V424H24
	c-4.4,0-8,3.6-8,8c0,0,0,0,0,0v56c0,4.4,3.6,8,8,8c0,0,0,0,0,0h464c4.4,0,8-3.6,8-8c0,0,0,0,0,0v-56C496,427.6,492.4,424,488,424
	C488,424,488,424,488,424z M400,424V253.4c4.4,4.5,9.9,7.8,16,9.4V424H400z M336,432v48h-32v-56h16c4.4,0,8-3.6,8-8v-24
	c0-4.4-3.6-8-8-8h-48c-4.4,0-8,3.6-8,8v24c0,4.4,3.6,8,8,8h16v56h-32v-48c0-4.4-3.6-8-8-8c0,0,0,0,0,0h-16v-24c0-4.4-3.6-8-8-8
	c0,0,0,0,0,0h-16V263.3c7.8-1.6,14.7-5.8,19.8-11.9c0.5,0.6,1,1.2,1.6,1.8c6.5,7,15.7,10.9,25.3,10.9h2.8c9.6,0,18.7-3.9,25.3-10.9
	c0.5-0.6,1.1-1.2,1.6-1.8c1.2,1.4,2.4,2.7,3.8,3.9V280c-22.1,0-40,17.9-40,40c0,4.4,3.6,8,8,8c0,0,0,0,0,0h80c4.4,0,8-3.6,8-8
	c0,0,0,0,0,0c0-22.1-17.9-40-40-40v-16.7c2.3,0.5,4.7,0.7,7.1,0.7h2.5c10.2,0,19.9-4.5,26.5-12.3c0.2-0.2,0.4-0.5,0.6-0.7
	c6.6,8.3,16.6,13.1,27.2,13h1.5c5,0,10-1.1,14.6-3.2V392h-16c-4.4,0-8,3.6-8,8c0,0,0,0,0,0v24h-16C339.6,424,336,427.6,336,432
	C336,432,336,432,336,432z M280,408v-8h32v8H280z M124.4,224.3l17.7-64.3h32.5l-11.9,72.3c-1.5,9.1-9.3,15.8-18.5,15.7h-1.5
	c-10.4,0-18.8-8.4-18.8-18.8C123.8,227.5,124,225.9,124.4,224.3z M128,260.8c4.6,2.1,9.5,3.2,14.6,3.2h1.5c10.6,0,20.6-4.8,27.2-13
	c0.2,0.2,0.4,0.5,0.6,0.7c5.2,6.1,12.3,10.2,20.1,11.7V304h-64V260.8z M198.4,248c-10.4,0-18.8-8.4-18.8-18.8c0-1,0.1-2.1,0.3-3.1
	l10.9-66.1h32.8l-3.9,70.2c-0.5,10-8.8,17.8-18.8,17.8L198.4,248z M271.1,242.1c-3.5,3.8-8.5,5.9-13.6,5.9h-2.8
	c-10.4,0-18.8-8.4-18.8-18.8c0-0.3,0-0.7,0-1l3.7-68.2h32.9l3.7,68.2v0.1C276.5,233.4,274.6,238.4,271.1,242.1z M292.3,230.2
	l-3.9-70.2h32.8l10.9,66.1c1.7,10.2-5.2,19.9-15.5,21.6c-1,0.2-2,0.3-3.1,0.3h-2.5C301.1,248,292.9,240.2,292.3,230.2L292.3,230.2z
	 M304,296c10.2,0,19.2,6.4,22.6,16h-61.3c3.4-9.6,12.5-16,22.6-16H304z M384.4,240.6c-3.5,4.7-9.1,7.4-14.9,7.4h-1.5
	c-9.2,0-17.1-6.6-18.5-15.7L337.4,160h32.5l17.6,64.2c0,0,0,0,0,0C389.1,229.9,387.9,236,384.4,240.6z M376,408h8v16h-8V408z
	 M442.5,222.5c3.7,9.7-1.1,20.6-10.8,24.3c-2.2,0.8-4.4,1.3-6.8,1.3c-8.5,0-15.9-5.7-18.1-13.8L386.5,160h32L442.5,222.5z M96,32
	h320v112H96V32z M71.5,239.9c-3.6-5.1-4.3-11.6-2-17.4l24-62.5h32l-20.4,74.2c-2.3,8.1-9.7,13.8-18.1,13.8
	C80.8,248,75,245,71.5,239.9z M96,262.8c6.1-1.6,11.6-4.9,16-9.4V424H96V262.8z M160,480H32v-40h128V480z M168,424h-40V320h64v160
	h-16v-48C176,427.6,172.4,424,168,424C168,424,168,424,168,424z M208,408h8v24c0,4.4,3.6,8,8,8c0,0,0,0,0,0h16v40h-32V408z M480,480
	H352v-40h128V480z"/>
<path class="st0" d="M312,96h-8.7c-3.4-20.1-19.2-35.9-39.3-39.3V48c0-4.4-3.6-8-8-8s-8,3.6-8,8v8.7c-20.1,3.4-35.9,19.2-39.3,39.3
	H200c-4.4,0-8,3.6-8,8c0,17.7,14.3,32,32,32h64c17.7,0,32-14.3,32-32C320,99.6,316.4,96,312,96z M256,72c14.6,0,27.3,9.9,31,24h-62
	C228.7,81.9,241.4,72,256,72z M288,120h-64c-5.7,0-11-3.1-13.9-8h91.7C299,116.9,293.7,120,288,120z"/>
<path class="st0" d="M196.4,78.7c2.2-1.5,3.6-4,3.6-6.7V48h-16v19.4c-2.5,1.3-5.2,2.3-8,2.9V48h-16v22.4c-2.8-0.6-5.5-1.6-8-2.9V48
	h-16v24c0,2.7,1.3,5.2,3.6,6.7c6.2,4.1,13.1,6.8,20.4,8V136h16V86.7C183.3,85.5,190.3,82.8,196.4,78.7z"/>
<path class="st0" d="M344,40c-17.7,0-32,14.3-32,32c0,14.6,9.9,27.3,24,31v33h16v-33c17.1-4.4,27.4-21.9,23-39
	C371.3,49.9,358.6,40,344,40z M344,88c-8.8,0-16-7.2-16-16s7.2-16,16-16s16,7.2,16,16C360,80.8,352.8,88,344,88z"/>
</svg>
